{"title":"Mystery Team 2009 720p WEB-DL H264 MP4 BADASSMEDIA","uid":11369327,"size":2945780609,"categoryP":"video","categoryS":"hd___movies","magnet":"?xt=urn:btih:74702db40e3f00af4c980fa872bff1a5bc245216&amp;dn=Mystery+Team+2009+720p+WEB-DL+H264+MP4+BADASSMEDIA&amp;tr=udp%3A%2F%2Ftracker.openbittorrent.com%3A80&amp;tr=udp%3A%2F%2Fopen.demonii.com%3A1337&amp;tr=udp%3A%2F%2Ftracker.coppersurfer.tk%3A6969&amp;tr=udp%3A%2F%2Fexodus.desync.com%3A6969","seeders":0,"leechers":1,"uploader":"TvTeam","files":3,"time":1415070277,"description":" &lt;a href=&quot;http://www.torrenting.com&quot; rel=&quot;nofollow&quot; target=&quot;_NEW&quot;&gt;http://www.torrenting.com&lt;/a&gt;\n\nSign up is OPEN - for time being. Come and have fun.\n\n\n------------------------------------------------------------------------General\nFormat : MPEG-4\nFormat profile : Base Media\nCodec ID : isom\nFile size : 2.74 GiB\nDuration : 1h 37mn\nOverall bit rate mode : Variable\nOverall bit rate : 4 020 Kbps\nMovie name : Mystery Team\nPerformer : Dan Eckman\nGenre : Comedy / 57\nRecorded date : 2009\nTagged date : UTC 2014-10-06 18:06:54\nCover : Yes\niTunEXTC : mpaa|R|400|\niTunMOVI : &lt;?xml version=&quot;1.0&quot; encoding=&quot;UTF-8&quot;?&gt; / &lt;!DOCTYPE plist PUBLIC &quot;-//Apple//DTD PLIST 1.0//EN&quot; &quot;http://www.apple.com/DTDs/PropertyList-1.0.dtd&quot;&gt; / &lt;plist version=&quot;1.0&quot;&gt; / &lt;dict&gt; / &lt;key&gt;cast&lt;/key&gt; / &lt;array&gt; / &lt;dict&gt; / &lt;key&gt;name&lt;/key&gt; / &lt;string&gt;D.C. Pierson&lt;/string&gt; / &lt;/dict&gt; / &lt;dict&gt; / &lt;key&gt;name&lt;/key&gt; / &lt;string&gt;Donald Glover&lt;/string&gt; / &lt;/dict&gt; / &lt;dict&gt; / &lt;key&gt;name&lt;/key&gt; / &lt;string&gt;Dominic Dierkes&lt;/string&gt; / &lt;/dict&gt; / &lt;dict&gt; / &lt;key&gt;name&lt;/key&gt; / &lt;string&gt;Matt Walsh&lt;/string&gt; / &lt;/dict&gt; / &lt;dict&gt; / &lt;key&gt;name&lt;/key&gt; / &lt;string&gt;Aubrey Plaza&lt;/string&gt; / &lt;/dict&gt; / &lt;dict&gt; / &lt;key&gt;name&lt;/key&gt; / &lt;string&gt;Bobby Moynihan&lt;/string&gt; / &lt;/dict&gt; / &lt;dict&gt; / &lt;key&gt;name&lt;/key&gt; / &lt;string&gt;Ellie Kemper&lt;/string&gt; / &lt;/dict&gt; / &lt;/array&gt; / &lt;key&gt;directors&lt;/key&gt; / &lt;array&gt; / &lt;dict&gt; / &lt;key&gt;name&lt;/key&gt; / &lt;string&gt;Dan Eckman&lt;/string&gt; / &lt;/dict&gt; / &lt;/array&gt; / &lt;key&gt;producers&lt;/key&gt; / &lt;array&gt; / &lt;dict&gt; / &lt;key&gt;name&lt;/key&gt; / &lt;string&gt;Meggie McFadden&lt;/string&gt; / &lt;/dict&gt; / &lt;/array&gt; / &lt;key&gt;screenwriters&lt;/key&gt; / &lt;array&gt; / &lt;dict&gt; / &lt;key&gt;name&lt;/key&gt; / &lt;string&gt;D.C. Pierson&lt;/string&gt; / &lt;/dict&gt; / &lt;dict&gt; / &lt;key&gt;name&lt;/key&gt; / &lt;string&gt;Donald Glover&lt;/string&gt; / &lt;/dict&gt; / &lt;dict&gt; / &lt;key&gt;name&lt;/key&gt; / &lt;string&gt;Dominic Dierkes&lt;/string&gt; / &lt;/dict&gt; / &lt;/array&gt; / &lt;/dict&gt; / &lt;/plist&gt;\ndesc : They were kid detectives. Now theyre eighteen and still solving child crimes. But when the Mystery Team is challenged to solve a murder, they see an opportunity to prove theyre real detectives  and to save the world of sex, crime and swear words. From\nldes : They were kid detectives. Now theyre eighteen and still solving child crimes. But when the Mystery Team is challenged to solve a murder, they see an opportunity to prove theyre real detectives  and to save the world of sex, crime and swear words. From Derrick Comedy, the Internet sensation whose short films have been viewed over 100 million times, comes this strangely hilarious, completely unique film thats been called &quot;Encyclopedia Brown meets NAPOLEON DYNAMITE meets ACE VENTURA (Cinematical.com).\nhdvd : 1\nstik : 9\n\nVideo\nID : 2\nFormat : AVC\nFormat/Info : Advanced Video Codec\nFormat profile : &lt;a class=&quot;__cf_email__&quot; href=&quot;/cdn-cgi/l/email-protection&quot; data-cfemail=&quot;7436150711181d1a113438475a44&quot;&gt;[email&amp;#160;protected]&lt;/a&gt;&lt;script cf-hash='f9e31' type=&quot;text/javascript&quot;&gt;\n/* &lt;![CDATA[ */!function(){try{var t=&quot;currentScript&quot;in document?document.currentScript:function(){for(var t=document.getElementsByTagName(&quot;script&quot;),e=t.length;e--;)if(t[e].getAttribute(&quot;cf-hash&quot;))return t[e]}();if(t&amp;&amp;t.previousSibling){var e,r,n,i,c=t.previousSibling,a=c.getAttribute(&quot;data-cfemail&quot;);if(a){for(e=&quot;&quot;,r=parseInt(a.substr(0,2),16),n=2;a.length-n;n+=2)i=parseInt(a.substr(n,2),16)^r,e+=String.fromCharCode(i);e=document.createTextNode(e),c.parentNode.replaceChild(e,c)}}}catch(u){}}();/* ]]&gt; */&lt;/script&gt;\nFormat settings, CABAC : No\nFormat settings, ReFrames : 3 frames\nCodec ID : avc1\nCodec ID/Info : Advanced Video Coding\nDuration : 1h 37mn\nBit rate : 3 889 Kbps\nWidth : 1 280 pixels\nHeight : 716 pixels\nDisplay aspect ratio : 16:9\nFrame rate mode : Constant\nFrame rate : 23.976 fps\nColor space : YUV\nChroma subsampling : 4:2:0\nBit depth : 8 bits\nScan type : Progressive\nBits/(Pixel*Frame) : 0.177\nStream size : 2.65 GiB (97%)\nWriting library : x264 core 135\nEncoding settings : cabac=0 / ref=3 / deblock=1:0:0 / analyse=0x1:0x11 / me=hex / subme=7 / psy=1 / psy_rd=1.00:0.00 / mixed_ref=1 / me_range=16 / chroma_me=0 / trellis=2 / 8x8dct=0 / cqm=0 / deadzone=21,11 / fast_pskip=1 / chroma_qp_offset=-2 / threads=6 / lookahead_threads=1 / sliced_threads=0 / nr=0 / decimate=1 / interlaced=0 / bluray_compat=0 / constrained_intra=0 / bframes=0 / weightp=0 / keyint=300 / keyint_min=25 / scenecut=40 / intra_refresh=0 / rc_lookahead=40 / rc=crf / mbtree=1 / crf=18.0 / qcomp=0.60 / qpmin=10 / qpmax=51 / qpstep=4 / ip_ratio=1.40 / aq=1:1.00\n\nAudio\nID : 1\nFormat : AAC\nFormat/Info : Advanced Audio Codec\nFormat profile : LC\nCodec ID : 40\nDuration : 1h 37mn\nBit rate mode : Variable\nBit rate : 128 Kbps\nMaximum bit rate : 228 Kbps\nChannel(s) : 2 channels\nChannel positions : Front: L R\nSampling rate : 48.0 KHz\nCompression mode : Lossy\nStream size : 89.4 MiB (3%)\nLanguage : English\n\nText\nID : 4\nFormat : Apple text\nCodec ID : text\nDuration : 1h 37mn\nBit rate mode : Variable\nBit rate : 0 bps\nStream size : 351 Bytes (0%)\nEncoded date : UTC 2014-10-06 18:06:54\nTagged date : UTC 2014-10-06 18:06:54","torrent":{"xt":"urn:btih:74702db40e3f00af4c980fa872bff1a5bc245216","amp;dn":"Mystery+Team+2009+720p+WEB-DL+H264+MP4+BADASSMEDIA","amp;tr":["udp%3A%2F%2Ftracker.openbittorrent.com%3A80","udp%3A%2F%2Fopen.demonii.com%3A1337","udp%3A%2F%2Ftracker.coppersurfer.tk%3A6969","udp%3A%2F%2Fexodus.desync.com%3A6969"],"infoHash":"74702db40e3f00af4c980fa872bff1a5bc245216","infoHashBuffer":{"type":"Buffer","data":[116,112,45,180,14,63,0,175,76,152,15,168,114,191,241,165,188,36,82,22]},"announce":[],"urlList":[]}}